# xmcd
#
# Track frame offsets: 
#        150
#        14081
#        44050
#        56014
#        73286
#        98792
#        119104
#        141139
#        161464
#        187669
#        200585
#        219174
#        231957
#        250533
#        261564
#        273227
#        286425
#        297315
#        314230
#        323782
#
# Disc length: 4467 seconds
#
# Revision: 0
# Processed by: cddbd v1.5.2PL0 Copyright (c) Steve Scherf et al.
# Submitted via: ExactAudioCopy v1.1
#
DISCID=46117114
DTITLE=Nina Simone - 60 Essential Recordings
DYEAR=1900
DGENRE=Blues
TTITLE0=Gin House Blues
TTITLE1=Just Say I Love Him
TTITLE2=Memphis in June
TTITLE3=Forbidden Fruit
TTITLE4=Touble In Mind
TTITLE5=Lil'l Liza June
TTITLE6=He Was Too Good To Me
TTITLE7=The House Of The Rising Sun
TTITLE8=Brown Baby
TTITLE9=Zango
TTITLE10=If He Changed My Name
TTITLE11=Do Nothing Till You Hear From Me
TTITLE12=I Got It Bad And That Aint Good
TTITLE13=My Buddy Bolden
TTITLE14=Merry Mending
TTITLE15=Something To Live For
TTITLE16=You Better Know It
TTITLE17=Solitude
TTITLE18=The Girl Fro Joe's
TTITLE19=It Don't Mean a Thing if it Aint Got that Swing
EXTD=
EXTT0=
EXTT1=
EXTT2=
EXTT3=
EXTT4=
EXTT5=
EXTT6=
EXTT7=
EXTT8=
EXTT9=
EXTT10=
EXTT11=
EXTT12=
EXTT13=
EXTT14=
EXTT15=
EXTT16=
EXTT17=
EXTT18=
EXTT19=
PLAYORDER=
